<svg xmlns="http://www.w3.org/2000/svg" viewBox="0 0 512 512">
  <defs>
    <linearGradient id="bg" x1="0%" y1="0%" x2="100%" y2="100%">
      <stop offset="0%" style="stop-color:#fe2c55"/>
      <stop offset="100%" style="stop-color:#25f4ee"/>
    </linearGradient>
  </defs>
  <rect width="512" height="512" rx="100" fill="url(#bg)"/>
  <path d="M350 180a70 70 0 0 1-55-62v-3h-50v195a42 42 0 0 1-76 25 42 42 0 0 1 34-68 43 43 0 0 1 13 2v-51a99 99 0 0 0-15-1 92 92 0 0 0-64 158 92 92 0 0 0 158-65v-102a119 119 0 0 0 69 22v-49a70 70 0 0 1-14-1z" fill="white"/>
</svg>
